<svg width="274" height="102" viewBox="0 0 274 102" fill="none" xmlns="http://www.w3.org/2000/svg">
<path d="M91.8881 23.3591L96.9102 19.6275L99.5628 17.658C100.001 17.3318 101.011 18.344 100.685 18.783L98.7202 21.4414L94.9969 26.4748C94.9117 26.5907 94.7383 26.6151 94.5376 26.5419L93.0805 26.0145C92.7702 25.9017 92.463 25.5937 92.3535 25.2858L91.8272 23.8255C91.7482 23.6182 91.7725 23.4444 91.8881 23.3591ZM74.8262 17.655L77.4787 19.6244L82.5008 23.356C82.6164 23.4414 82.6408 23.6152 82.5677 23.8164L82.0415 25.2767C81.929 25.5846 81.6217 25.8956 81.3145 26.0053L79.8574 26.5327C79.6536 26.6059 79.4833 26.5815 79.3981 26.4657L75.6748 21.4323L73.7098 18.7738C73.3782 18.3409 74.3881 17.3288 74.8262 17.655ZM82.5008 38.9927L77.4787 42.7243L74.8262 44.6938C74.3881 45.02 73.3782 44.0078 73.7037 43.5688L75.6688 40.9104L79.392 35.877C79.4772 35.7611 79.6506 35.7367 79.8513 35.8099L81.3084 36.3373C81.6187 36.4501 81.9259 36.7581 82.0354 37.066L82.5617 38.5263C82.6408 38.7336 82.6164 38.9074 82.5008 38.9927ZM82.5465 31.9503L80.9616 34.06C80.7396 34.3557 80.408 34.5112 80.0673 34.4776L65.2229 33.0966L57.384 32.3679C56.0881 32.246 56.0881 30.1028 57.384 29.9839L65.2229 29.2552L80.0673 27.8742C80.408 27.8437 80.7426 27.9992 80.9616 28.2918L82.5465 30.4015C82.8811 30.8497 82.8811 31.5021 82.5465 31.9503ZM90.4888 38.319L89.1108 53.1966L88.3838 61.0531C88.2622 62.3518 86.1237 62.3518 86.0051 61.0531L85.2781 53.1966L83.9001 38.319C83.8697 37.9775 84.0248 37.6422 84.3168 37.4227L86.4218 35.8343C86.8659 35.4989 87.5199 35.4989 87.9671 35.8343L90.0721 37.4227C90.3641 37.6452 90.5223 37.9775 90.4888 38.319ZM90.0721 24.9291L87.9671 26.5175C87.523 26.8529 86.869 26.8529 86.4218 26.5175L84.3168 24.9291C84.0218 24.7066 83.8666 24.3743 83.9001 24.0328L85.2781 9.15522L86.0051 1.29874C86.1268 2.52291e-06 88.2652 2.52291e-06 88.3838 1.29874L89.1108 9.15522L90.4888 24.0328C90.5223 24.3743 90.3641 24.7066 90.0721 24.9291ZM99.5628 44.6968L96.9102 42.7274L91.8881 38.9958C91.7725 38.9104 91.7482 38.7367 91.8212 38.5354L92.3474 37.0751C92.46 36.7672 92.7672 36.4562 93.0744 36.3465L94.5315 35.8191C94.7353 35.7459 94.9056 35.7703 94.9908 35.8861L98.7141 40.9195L100.679 43.578C101.011 44.0109 100.001 45.023 99.5628 44.6968ZM117.005 32.3679L109.166 33.0966L94.3216 34.4776C93.9809 34.5081 93.6463 34.3526 93.4273 34.06L91.8425 31.9503C91.5078 31.5052 91.5078 30.8497 91.8425 30.4015L93.4273 28.2918C93.6493 27.9961 93.9809 27.8406 94.3216 27.8742L109.166 29.2552L117.005 29.9839C118.304 30.1028 118.304 32.249 117.005 32.3679Z" fill="#F5A83C"/>
<path d="M143.025 49.0044C142.852 49.4708 142.623 49.8641 142.319 50.169C142.03 50.4822 141.674 50.7269 141.279 50.8854C140.89 51.047 140.518 51.1476 140.163 51.1781C139.816 51.2208 139.317 51.2421 138.675 51.2421H136.549V43.4131H138.696C139.834 43.4131 140.734 43.5869 141.376 43.9466C142.015 44.2941 142.493 44.7606 142.809 45.3703C143.122 45.9679 143.287 46.6538 143.287 47.4465C143.287 48.0136 143.198 48.5349 143.025 49.0044ZM153.252 40.3065H136.549V18.5571H152.945V20.6943H138.988V27.7825H152.245V29.9196H138.988V38.1663H153.586L153.252 40.3065ZM161.298 45.3612V51.2421H160.169V43.4161H161.298V45.3612ZM173.581 40.3065H158.219V18.5571H160.628V38.1358H173.976L173.581 40.3065ZM185.301 49.0562C185.301 49.544 185.097 50.0074 184.723 50.3123C184.452 50.5501 184.136 50.7879 183.92 50.8671C183.254 51.1171 182.655 51.2421 182.089 51.2421C180.969 51.2421 180.033 50.8671 179.284 50.1324C178.548 49.3946 178.177 48.4556 178.177 47.3124C178.177 46.1904 178.527 45.2057 179.239 44.3551C179.95 43.5045 180.912 43.0869 182.122 43.0869C183.163 43.0869 184.033 43.4619 184.699 44.221V44.2545L184.44 44.5259C184.328 44.3673 184.203 44.2088 184.057 44.0838C183.561 43.6082 182.962 43.3704 182.247 43.3704C181.502 43.3704 180.869 43.6417 180.312 44.1966C179.771 44.7393 179.488 45.7148 179.488 47.1203C179.488 48.5135 179.759 49.4983 180.291 50.0897C180.811 50.669 181.465 50.9616 182.259 50.9616C182.655 50.9616 183.017 50.8824 183.345 50.7116C183.674 50.5531 183.887 50.3488 184.002 50.111C184.127 49.8733 184.173 49.5775 184.173 49.2147V47.7636H185.304V49.0562H185.301ZM182.542 31.4165C182.451 31.5689 182.39 31.6604 182.39 31.9348V40.3034H179.95V31.8738C179.95 31.6909 179.89 31.5384 179.737 31.386L170.624 18.5571H173.55C176.203 22.3741 180.285 27.9349 181.261 29.6757C182.329 27.9044 186.198 22.3741 188.881 18.5571H191.656L182.542 31.4165ZM203.312 45.3612V51.2421H202.184V43.4161H203.312V45.3612ZM202.476 40.7638C196.593 40.7638 193.545 38.0748 192.815 34.0445H195.345C196.17 36.7639 198.15 38.7181 202.6 38.7181C207.142 38.7181 208.94 36.8858 208.94 34.6847C208.94 32.3646 207.689 30.8982 201.806 29.9196C195.558 28.8495 193.943 26.9258 193.943 23.9624C193.943 20.2674 197.417 18.0968 202.019 18.0968C208.997 18.0968 210.552 21.7613 210.798 23.871H208.298C207.811 22.2826 206.835 20.176 201.989 20.176C198.698 20.176 196.474 21.307 196.474 23.7186C196.474 25.6423 197.359 26.8953 202.509 27.752C210.251 29.0355 211.501 31.4775 211.501 34.4408C211.495 37.8004 208.784 40.7638 202.476 40.7638ZM218.932 40.3065H216.493V18.5571H218.932V40.3065ZM227.799 43.6753H224.544V51.2452H223.416V43.6753H220.195L220.207 43.4131H227.799V43.6753ZM244.076 30.8372C244.076 38.0474 240.39 40.7638 234.689 40.7638C228.989 40.7638 225.271 37.8919 225.271 31.1116V18.5571H227.711V30.9287C227.711 36.9468 231.307 38.6266 234.783 38.6266C239.082 38.6266 241.64 36.5505 241.64 30.9287V18.5571H244.079V30.8372H244.076ZM250.197 51.2421C249.786 50.2391 249.616 49.8184 249.616 49.8184L249.035 48.3946H246.181L245.092 51.2452H244.682L247.891 43.4741H248.116L251.41 51.2452H250.197V51.2421ZM273.732 51.2421H268.296V43.4161H269.424V50.983H273.732V51.2421ZM273.732 40.3065H271.323V30.6238C271.323 26.499 271.323 22.56 271.444 20.3619H271.414C270.346 23.4167 266.081 32.9774 262.82 40.3095H260.719C258.309 34.4743 253.646 23.6301 252.46 20.3924H252.429C252.612 22.868 252.703 27.5721 252.703 31.2366V40.3095H250.419V18.5571H253.893C257.093 25.7978 261.269 35.5414 261.908 37.2822H261.938C263.006 34.7761 267.24 25.2764 270.167 18.5571H273.732V40.3065ZM141.033 44.3917C140.719 44.0655 140.372 43.849 139.992 43.7271C139.603 43.6173 139.113 43.5533 138.517 43.5533C138.225 43.5533 137.899 43.5655 137.638 43.5869V50.8488H138.83C139.502 50.8488 140.056 50.7513 140.491 50.5653C140.926 50.3793 141.294 50.0226 141.577 49.4769C141.869 48.9343 142.021 48.2361 142.021 47.4008C142.021 46.7362 141.933 46.16 141.76 45.6386C141.595 45.1325 141.346 44.7179 141.033 44.3917ZM246.224 48.0044H248.907L247.55 44.7454L246.224 48.0044Z" fill="white"/>
</svg>
